<svg xmlns="http://www.w3.org/2000/svg" xmlns:xlink="http://www.w3.org/1999/xlink" version="1.1" x="0px" y="0px" viewBox="0 0 90 90" enable-background="new 0 0 90 90" xml:space="preserve" preserveAspectRatio="none" width="100%" height="100%" class="" fill="rgba(255, 100, 71, 1.0)"><g><path fill-rule="evenodd" clip-rule="evenodd" d="M61.04,58.666c-1.876-2.906-4.148-4.794-7.399-5.863c0,0-2.452-1.261-8.859-1.261   c-6.408,0-8.861,1.261-8.861,1.261c-3.25,1.08-5.523,2.956-7.401,5.863c-0.743,1.144-1.145,3.445-1.172,4.674   c0.01,0.32,0,0.691,0,1.061v2.12v-1.463c0,2.344,1.6,4.241,3.574,4.241h27.714c1.975,0,3.574-1.897,3.574-4.241v1.463v-2.12   c0-0.37-0.007-0.741,0-1.061C62.184,62.111,61.783,59.809,61.04,58.666 M35.012,35.455c0,5.434,3.387,13.415,9.77,13.415   c6.27,0,9.766-7.982,9.766-13.415c0-5.433-4.372-9.844-9.766-9.844C39.386,25.611,35.012,30.022,35.012,35.455"></path><g><path d="M34.006,50.317c-1.575-1.999-3.464-3.37-5.993-4.2c0,0-2.292-1.179-8.279-1.179c-5.99,0-8.282,1.179-8.282,1.179    c-3.037,1.008-5.162,2.762-6.916,5.478c-0.695,1.069-1.07,3.22-1.096,4.369c0.009,0.3,0,0.646,0,0.992v0.613    c0,2.19,1.495,3.963,3.341,3.963h16.725c0.238-1.387,0.661-2.91,1.263-3.835C27.119,54.056,29.965,51.695,34.006,50.317z"></path><path d="M19.733,42.44c5.86,0,9.127-7.461,9.127-12.538c0-5.078-4.087-9.201-9.127-9.201c-5.044,0-9.132,4.123-9.132,9.201    C10.602,34.98,13.768,42.44,19.733,42.44z"></path></g><g><path d="M55.584,50.317c1.575-1.999,3.464-3.37,5.993-4.2c0,0,2.291-1.179,8.279-1.179c5.989,0,8.282,1.179,8.282,1.179    c3.038,1.008,5.162,2.762,6.916,5.478c0.695,1.069,1.07,3.22,1.096,4.369c-0.009,0.3,0,0.646,0,0.992v0.613    c0,2.19-1.495,3.963-3.341,3.963H66.085c-0.238-1.387-0.661-2.91-1.263-3.835C62.471,54.056,59.625,51.695,55.584,50.317z"></path><path d="M69.857,42.44c-5.86,0-9.127-7.461-9.127-12.538c0-5.078,4.087-9.201,9.127-9.201c5.044,0,9.132,4.123,9.132,9.201    C78.989,34.98,75.823,42.44,69.857,42.44z"></path></g></g></svg>
