<svg xmlns="http://www.w3.org/2000/svg" xmlns:xlink="http://www.w3.org/1999/xlink" version="1.1" x="0px" y="0px" viewBox="0 0 90 90" enable-background="new 0 0 90 90" xml:space="preserve" preserveAspectRatio="none" width="100%" height="100%" class="" fill="rgba(255, 196, 1, 1)"><path d="M45,2.5C21.528,2.5,2.5,21.528,2.5,45S21.528,87.5,45,87.5S87.5,68.472,87.5,45S68.472,2.5,45,2.5z M70.285,35.151  L43.517,61.92c-0.938,0.938-2.209,1.465-3.536,1.465s-2.598-0.526-3.536-1.465l-16.731-16.73c-1.953-1.953-1.953-5.119,0-7.071  c1.953-1.952,5.118-1.952,7.071,0l13.195,13.195L63.215,28.08c1.951-1.952,5.119-1.952,7.07,0  C72.238,30.032,72.238,33.198,70.285,35.151z"></path></svg>
